<svg xmlns="http://www.w3.org/2000/svg" xmlns:xlink="http://www.w3.org/1999/xlink" viewBox="0 0 42 52.5" version="1.1" x="0px" y="0px"><title>leaf-disease</title><desc>Created with Sketch.</desc><g stroke="none" stroke-width="1" fill="none" fill-rule="evenodd"><g transform="translate(-4.000000, -4.000000)" fill="#000000" fill-rule="nonzero"><path d="M15.3755336,27.9229468 C18.0929445,23.1846885 22.2300358,19.7955981 27.7800178,17.7799032 C28.1693489,17.6385023 28.5995921,17.8394894 28.7409931,18.2288204 C28.882394,18.6181514 28.6814069,19.0483947 28.2920759,19.1897956 C18.7801997,22.6444086 13.7145331,30.333896 13.0540281,42.404727 C13.0313966,42.8183218 12.6777653,43.1352602 12.2641704,43.1126286 C11.8505756,43.0899971 11.5336372,42.7363658 11.5562687,42.3227709 C11.8343791,37.2402606 12.8770978,32.8708577 14.681757,29.224082 C14.5600059,29.1883854 14.4456802,29.1212767 14.3516547,29.0230381 C11.4044332,25.943759 10.8521001,22.2889129 12.7028584,18.2166895 C14.1621049,15.0059093 16.946021,13.2035472 21.4275555,11.8514137 C23.9604514,11.0872082 28.2002901,10.8106857 33.5657571,11.3757037 C34.8790005,11.5139966 37.0485346,11.9890158 40.0993484,12.8023156 L40.730859,12.9706666 L40.6504606,13.619268 C40.2413787,16.9194681 39.2989068,20.260093 37.8250857,23.6400237 C35.9235179,28.0009105 32.7867654,30.5988489 28.753409,31.7601673 C25.9505784,32.5671822 23.2979722,32.6192968 19.9491359,32.2730292 C19.537119,32.2304269 19.2376493,31.8618853 19.2802516,31.4498684 C19.3228539,31.0378515 19.6913955,30.7383818 20.1034124,30.780984 C23.2766736,31.1090972 25.7630097,31.0602494 28.3383773,30.3187275 C31.9563029,29.2770235 34.7337266,26.9766904 36.4501189,23.0404685 C37.7707184,20.0119226 38.6449184,17.0264219 39.0743684,14.0830617 C36.4298156,13.3916395 34.5346126,12.9860245 33.4086662,12.8674552 C28.229518,12.3220578 24.1867069,12.5857301 21.8608326,13.2874746 C17.7527502,14.5269331 15.3081335,16.1096261 14.06844,18.8373238 C12.4797692,22.332876 12.9127976,25.3099382 15.3755336,27.9229468 Z M20.5,18 C20.7761424,18 21,17.7761424 21,17.5 C21,17.2238576 20.7761424,17 20.5,17 C20.2238576,17 20,17.2238576 20,17.5 C20,17.7761424 20.2238576,18 20.5,18 Z M20.5,19.5 C19.3954305,19.5 18.5,18.6045695 18.5,17.5 C18.5,16.3954305 19.3954305,15.5 20.5,15.5 C21.6045695,15.5 22.5,16.3954305 22.5,17.5 C22.5,18.6045695 21.6045695,19.5 20.5,19.5 Z M27.5,24 C27.7761424,24 28,23.7761424 28,23.5 C28,23.2238576 27.7761424,23 27.5,23 C27.2238576,23 27,23.2238576 27,23.5 C27,23.7761424 27.2238576,24 27.5,24 Z M27.5,25.5 C26.3954305,25.5 25.5,24.6045695 25.5,23.5 C25.5,22.3954305 26.3954305,21.5 27.5,21.5 C28.6045695,21.5 29.5,22.3954305 29.5,23.5 C29.5,24.6045695 28.6045695,25.5 27.5,25.5 Z M33.5,19 C33.7761424,19 34,18.7761424 34,18.5 C34,18.2238576 33.7761424,18 33.5,18 C33.2238576,18 33,18.2238576 33,18.5 C33,18.7761424 33.2238576,19 33.5,19 Z M33.5,20.5 C32.3954305,20.5 31.5,19.6045695 31.5,18.5 C31.5,17.3954305 32.3954305,16.5 33.5,16.5 C34.6045695,16.5 35.5,17.3954305 35.5,18.5 C35.5,19.6045695 34.6045695,20.5 33.5,20.5 Z M25.5,16.75 C24.8096441,16.75 24.25,16.1903559 24.25,15.5 C24.25,14.8096441 24.8096441,14.25 25.5,14.25 C26.1903559,14.25 26.75,14.8096441 26.75,15.5 C26.75,16.1903559 26.1903559,16.75 25.5,16.75 Z M25.5,15.25 C25.3619288,15.25 25.25,15.3619288 25.25,15.5 C25.25,15.6380712 25.3619288,15.75 25.5,15.75 C25.6380712,15.75 25.75,15.6380712 25.75,15.5 C25.75,15.3619288 25.6380712,15.25 25.5,15.25 Z M16.5,22.75 C15.8096441,22.75 15.25,22.1903559 15.25,21.5 C15.25,20.8096441 15.8096441,20.25 16.5,20.25 C17.1903559,20.25 17.75,20.8096441 17.75,21.5 C17.75,22.1903559 17.1903559,22.75 16.5,22.75 Z M16.5,21.25 C16.3619288,21.25 16.25,21.3619288 16.25,21.5 C16.25,21.6380712 16.3619288,21.75 16.5,21.75 C16.6380712,21.75 16.75,21.6380712 16.75,21.5 C16.75,21.3619288 16.6380712,21.25 16.5,21.25 Z M22.5,27.75 C21.8096441,27.75 21.25,27.1903559 21.25,26.5 C21.25,25.8096441 21.8096441,25.25 22.5,25.25 C23.1903559,25.25 23.75,25.8096441 23.75,26.5 C23.75,27.1903559 23.1903559,27.75 22.5,27.75 Z M22.5,26.25 C22.3619288,26.25 22.25,26.3619288 22.25,26.5 C22.25,26.6380712 22.3619288,26.75 22.5,26.75 C22.6380712,26.75 22.75,26.6380712 22.75,26.5 C22.75,26.3619288 22.6380712,26.25 22.5,26.25 Z M26.5,29.75 C25.8096441,29.75 25.25,29.1903559 25.25,28.5 C25.25,27.8096441 25.8096441,27.25 26.5,27.25 C27.1903559,27.25 27.75,27.8096441 27.75,28.5 C27.75,29.1903559 27.1903559,29.75 26.5,29.75 Z M26.5,28.25 C26.3619288,28.25 26.25,28.3619288 26.25,28.5 C26.25,28.6380712 26.3619288,28.75 26.5,28.75 C26.6380712,28.75 26.75,28.6380712 26.75,28.5 C26.75,28.3619288 26.6380712,28.25 26.5,28.25 Z M32.5,25.75 C31.8096441,25.75 31.25,25.1903559 31.25,24.5 C31.25,23.8096441 31.8096441,23.25 32.5,23.25 C33.1903559,23.25 33.75,23.8096441 33.75,24.5 C33.75,25.1903559 33.1903559,25.75 32.5,25.75 Z M32.5,24.25 C32.3619288,24.25 32.25,24.3619288 32.25,24.5 C32.25,24.6380712 32.3619288,24.75 32.5,24.75 C32.6380712,24.75 32.75,24.6380712 32.75,24.5 C32.75,24.3619288 32.6380712,24.25 32.5,24.25 Z M30.5,16.75 C29.8096441,16.75 29.25,16.1903559 29.25,15.5 C29.25,14.8096441 29.8096441,14.25 30.5,14.25 C31.1903559,14.25 31.75,14.8096441 31.75,15.5 C31.75,16.1903559 31.1903559,16.75 30.5,16.75 Z M30.5,15.25 C30.3619288,15.25 30.25,15.3619288 30.25,15.5 C30.25,15.6380712 30.3619288,15.75 30.5,15.75 C30.6380712,15.75 30.75,15.6380712 30.75,15.5 C30.75,15.3619288 30.6380712,15.25 30.5,15.25 Z"/></g></g><text x="0" y="57" fill="#000000" font-size="5px" font-weight="bold" font-family="'Helvetica Neue', Helvetica, Arial-Unicode, Arial, Sans-serif">Created by  Boris</text><text x="0" y="62" fill="#000000" font-size="5px" font-weight="bold" font-family="'Helvetica Neue', Helvetica, Arial-Unicode, Arial, Sans-serif">from the Noun Project</text></svg>