<svg xmlns="http://www.w3.org/2000/svg" viewBox="0 0 64 64" id="plant-analysis">
  <polyline fill="#512a14" points="20.571 53 16 55 32 62 48 55 43.429 53"></polyline>
  <polyline fill="#683a23" points="20.571 49 16 51 32 58 48 51 43.429 49"></polyline>
  <polyline fill="#844c34" points="24.474 43.323 16.069 47 32.069 54 48.069 47 39.664 43.323"></polyline>
  <path fill="#49aad0" d="M9,25a1,1,0,0,1-1-1V11h2V23H32v2Z"></path>
  <rect width="2" height="21" x="31" y="7" fill="#512a14"></rect>
  <path fill="#52a04f" d="M32 17a5 5 0 0 0-5-5H24v3a5 5 0 0 0 5 5h6a5 5 0 0 0 5-5V12H37A5 5 0 0 0 32 17zM32 6a4 4 0 0 0-4-4H26V4a4 4 0 0 0 4 4h4a4 4 0 0 0 4-4V2H36A4 4 0 0 0 32 6z"></path>
  <path fill="#81bc74" d="M37 12a5 5 0 0 0-5 5v3h3a5 5 0 0 0 5-5V12zM38 4V2H36a4 4 0 0 0-4 4V8h2A4 4 0 0 0 38 4z"></path>
  <rect width="15" height="2" x="39" y="14" fill="#49aad0"></rect>
  <rect width="14" height="2" x="41" y="32" fill="#49aad0"></rect>
  <rect width="15" height="2" x="10" y="37" fill="#49aad0"></rect>
  <circle cx="9" cy="10" r="3" fill="#e98e4a"></circle>
  <polygon fill="#77787c" points="39 46 25 46 21 28 43 28 39 46"></polygon>
  <polygon fill="#9a9b9f" points="39.444 44 43 28 23.444 28 27 44 39.444 44"></polygon>
  <path fill="#eea667" d="M9,7a2.965,2.965,0,0,0-1.554.446A2.965,2.965,0,0,0,7,9a3,3,0,0,0,3,3,2.965,2.965,0,0,0,1.554-.446A2.965,2.965,0,0,0,12,10,3,3,0,0,0,9,7Z"></path>
  <circle cx="8" cy="38" r="3" fill="#e98e4a"></circle>
  <path fill="#eea667" d="M8,35a2.965,2.965,0,0,0-1.554.446A2.965,2.965,0,0,0,6,37a3,3,0,0,0,3,3,2.965,2.965,0,0,0,1.554-.446A2.965,2.965,0,0,0,11,38,3,3,0,0,0,8,35Z"></path>
  <circle cx="56" cy="33" r="3" fill="#e98e4a"></circle>
  <path fill="#eea667" d="M56,30a2.965,2.965,0,0,0-1.554.446A2.965,2.965,0,0,0,54,32a3,3,0,0,0,3,3,2.965,2.965,0,0,0,1.554-.446A2.965,2.965,0,0,0,59,33,3,3,0,0,0,56,30Z"></path>
  <circle cx="55" cy="15" r="3" fill="#e98e4a"></circle>
  <path fill="#eea667" d="M55,12a2.965,2.965,0,0,0-1.554.446A2.965,2.965,0,0,0,53,14a3,3,0,0,0,3,3,2.965,2.965,0,0,0,1.554-.446A2.965,2.965,0,0,0,58,15,3,3,0,0,0,55,12Z"></path>
</svg>
